<svg id="Layer_1" data-name="Layer 1" xmlns="http://www.w3.org/2000/svg" viewBox="0 0 200 200">
<defs><style>.cls-1{fill:none;stroke:#7828d9;stroke-linecap:round;stroke-linejoin:round;stroke-width:5px;}.cls-2{fill:#7828d9;}</style></defs><path class="cls-1" d="M32.73,97.77c-3.53-8.48-5.28-18.4-2.34-26.31C33.53,63,42.06,56.5,51.06,57c3.82.2,7.49,1.56,11.31,1.84,7.47.57,14.58-3,21.11-6.66,8.7-4.92,17.22-10.31,26.63-13.68s20-4.57,29.33-1A31.3,31.3,0,0,1,159,65.93c0,12.87-8,25.76-3.93,38a44.28,44.28,0,0,0,5,9.3c5.66,8.92,10.92,18.68,11.15,29.24a32.79,32.79,0,0,1-41.9,32.19c-12.38-3.58-22.92-14.42-35.76-13.4-7.12.57-13.34,4.77-19.75,7.92s-14.29,5.26-20.49,1.72c-5-2.85-7.5-8.62-8.94-14.17a64.6,64.6,0,0,1-1.27-26c.83-5.29,1.93-11.56-.64-16.53a76.88,76.88,0,0,0-4.67-7A55.26,55.26,0,0,1,32.73,97.77Z"/><path class="cls-2" d="M126.77,110.58c-.87,9-5.54,19.25-13.61,24.09-6.83,4.09-18,1.55-24.63-1.84-4.86-2.48-9.36-6-12.21-10.61-5.43-8.87-2.66-22,2.55-30.36,4.89-7.85,13.55-13.68,22.8-13.61s17.94,6.18,22,14.48A33.24,33.24,0,0,1,126.77,110.58Z"/></svg>