<svg xmlns="http://www.w3.org/2000/svg" viewBox="0 0 200 200"><defs><style>.a{fill:#7828d9;}</style></defs><path class="a" d="M173.61,135.54c-1.58-15.3-16.61-25.73-16-41,13.23-35.62-1.84-72.61-44.91-61.44C97.8,37,85.35,47.5,71.52,53.19c-7.25,3.23-13.36.09-21-.26-15.58-.14-27.23,15.58-25.11,30.41.49,13.6,9.36,23.68,15.09,35,.3,17.3-5.14,38.37,8.41,52.57,16.8,14.55,33.83-11.13,51.29-6.64,12.19,3.27,22.31,13.56,35.54,14.21C158.72,180.91,178.75,158,173.61,135.54Zm-6.49,14.94c-3.16,13.85-16.88,23.76-31,22.58C120.8,172.2,109,157.24,93,158.76c-12.54.91-22.2,13.16-35,11.05-19.86-8.83-9.65-35.92-11.14-52.76C40.73,102.53,26.3,86.67,35.15,70.19c8.36-16.33,26-3.37,39.17-9C99.32,48,146.4,19,154.93,64.55c.65,12.73-7.07,25-4,38.1C156.47,118.53,172.3,132.24,167.12,150.48ZM123.67,92.73c15.07,35-23.22,61.72-47.35,29.49C60.94,92.59,105.72,58.41,123.67,92.73Z"/></svg>