<svg id="Layer_1" data-name="Layer 1" xmlns="http://www.w3.org/2000/svg" viewBox="0 0 200 200"><defs><style>.cls-1{fill:#7828d9;}</style></defs><path class="cls-1" d="M172.23,20.85,146.12,31.41l-23.5-15.52,2,28.09-22,17.55,20.86,5.16s-6,5.22-6.83,6.16C110,80.22,102.48,86.93,95.47,93.91l-34.11,34L29.64,159.5c-2.51,2.5-5.07,4.95-7.52,7.5s-5.33,4.93-7.56,7.81a21.41,21.41,0,0,0-4.17,10.58,9.52,9.52,0,0,0,.21,4.41c.76,2.26,2.67,4,5.53,5.17a17,17,0,0,0,3.17.89c10.6,1.92,15.89-4.41,22-11.67q8-9.44,16-18.84,17.87-20.88,35.86-41.66,20-23.13,40.11-46.2l6.45,17.21,14.92-23.89,28.13-1.25L164.73,48ZM32,187.17c-4.05,4.66-15.78,6.1-16.84-2a11.29,11.29,0,0,1,3.21-8.76c19.46-20,75.28-75.65,85.35-86.15q4.48-4.66,9-9.32c2.73-2.85,5.8-5.48,8.36-8.47l6.78-.3.49,6.81ZM174.52,65.75,151.6,65.5l-11.12,20L134,63.74l-23-4.27,19.21-13L127.5,23.6l18,13.93L167,26.22,158.71,49.3Z"/><polygon class="cls-1" points="116.61 37.54 101.31 30.07 100.14 32.83 114.22 42.44 116.61 37.54"/><polygon class="cls-1" points="149.09 21.82 152.11 4.34 148.66 3.57 143.69 21.02 149.09 21.82"/><polygon class="cls-1" points="195.75 46.68 195.76 42.76 178.47 41.95 178.21 47.39 195.75 46.68"/><polygon class="cls-1" points="159.53 80.52 169.35 94.13 172.09 92.66 164.35 77.97 159.53 80.52"/><polygon class="cls-1" points="45.11 19.31 45.97 31.18 56.23 37.19 45.21 41.68 42.66 53.29 34.99 44.2 23.16 45.36 29.43 35.26 24.67 24.36 36.22 27.21 45.11 19.31"/><polygon class="cls-1" points="87.96 55.26 85.14 66.81 93.05 75.69 81.19 76.57 75.2 86.85 70.69 75.84 59.07 73.31 68.14 65.62 66.96 53.79 77.07 60.05 87.96 55.26"/><polygon class="cls-1" points="37.91 91.98 38.82 103.83 49.1 109.81 38.1 114.34 35.6 125.97 27.89 116.9 16.06 118.11 22.3 107.99 17.49 97.11 29.05 99.91 37.91 91.98"/><polygon class="cls-1" points="110.13 149.85 111.04 161.71 121.32 167.68 110.33 172.21 107.82 183.84 100.11 174.78 88.28 175.99 94.52 165.86 89.71 154.98 101.27 157.78 110.13 149.85"/><polygon class="cls-1" points="172.81 129.76 164.06 137.81 165.73 149.59 155.37 143.75 144.69 148.99 147.03 137.32 138.76 128.78 150.57 127.41 156.14 116.9 161.1 127.71 172.81 129.76"/></svg>