<svg xmlns="http://www.w3.org/2000/svg" viewBox="0 0 200 200"><defs><style>.a{fill:#7828d9;}</style></defs><path class="a" d="M137.85,88.63c-4.13-69.59-56-97.82-81.5-18.75A66.41,66.41,0,0,0,54.5,88.75a51.87,51.87,0,0,0,4.37,18.7,46.38,46.38,0,0,0,24.38,23.73c-.6,7.51,6,8.84,5.36,1.77a40.57,40.57,0,0,0,19,.49c4.11,5.61-36.32,10.37-25.84,14.36,1.21-1,31.79-6.26,30.25-9.33C112.71,123.44,139.29,128.57,137.85,88.63ZM87.93,125.47c-1.05-7.42-2.17-28.69-3.35-39.31,8.45,23.24,10.34,5.06,15-6.08,1.13,25.61,3.66,23,13.17,1.88-2.47,9.49-3.07,39.52-3.76,43.74A35.09,35.09,0,0,1,87.93,125.47ZM131.2,88.65c0,13.82-5.47,28.4-18.07,35.12-.49-15.89,16.06-93.37-8-37.41-1.44-36.92-7-17.11-13.92,2.25C68,28,81.59,105.63,82.42,123.48,57.21,111,55.29,77.26,67.63,54.66c7-11.36,14.22-28.42,29.16-30C123.8,30,130.68,65.1,131.2,88.65Z"/><path class="a" d="M112.08,152.61,83.79,167.92a1.91,1.91,0,0,0-.16,3.37c.9.18,11.72,7.67,12.49,6.36.08-.1,11.92-7.75,12-7.83,3.48-8.68-11.52,4.63-12.73,5.13l-6.91-5L114.4,157C117.36,155.6,115,151,112.08,152.61Z"/><path class="a" d="M104.14,150.65c1.88-1,5.47-2.73,7.35-3.65a1.3,1.3,0,0,0-1-2.37c-.57.2-1.44.56-2,.79-3.39,1.37-9.7,4-13.14,5.42-1.7,1.62-19,5.37-16.26,9.67a2.5,2.5,0,0,0,3.37,1.1C87.24,159.17,99.48,153,104.14,150.65Z"/></svg>