<svg xmlns="http://www.w3.org/2000/svg" viewBox="0 0 200 200" class="text-purple-600 dark:text-purple-400"><path fill="currentColor" d="M123.83,107.71c-14.76-67.78-60.2-63.51-78.77-.14C35.57,138.78,60.68,177,95.29,169.8,123.18,164.2,129.57,131.64,123.83,107.71Zm-37.61-43c6.38.2,12.82,4.32,18.61,12.35a67.31,67.31,0,0,1,10.49,21.44l-4.81,10.24c-6.27-14.83-7.12-6.39-13.13,1.94C87.76,88.38,93.81,76.33,75.11,104l-7-12.36c-2.68-3.79-5.4,3.54-6.73,5-.68-5.24-1.43-8.62.23-11.52C70,70.5,79.23,64.5,86.22,64.73Zm31.33,78.37C93.7,196,25,148.12,57.08,92.39c.55,11.77.84,18.77,9.19,4.13C77.7,118.77,74.54,108.94,87.36,94c.73.77,7.29,24.55,9.24,23.26,2.13.8,7.1-9.78,8.24-10.76,6.55,14.86,7.09,8.28,12.1-2C119.85,117,121.53,130.71,117.55,143.1Z"/><path class="a" d="M104.92,134.61c-2.15-1.85-7.12,10.56-18.36,11.36s-18-12.22-22.1-10,9.85,16.67,21.61,16.62C99.17,152.58,107.07,136.47,104.92,134.61Z"/><path class="a" d="M76.79,120.16c-1.55-6.35-9.53-6.13-9.44,0A10.3,10.3,0,0,0,76.79,120.16Z"/><path class="a" d="M176.28,154.5c-8.66-25.59-21.3-50.8-31.89-75.75-4.2-11.54,8.5-12.81-4-33.28-4.87-10.55-22.23-18.41-29.37-5.86-6.06,16.61,4,39.65,22.91,41.12a81.65,81.65,0,0,1,3.42,7.47c9.1,21.88,17,44.54,24.54,67.05C164.08,165.41,177.33,166.67,176.28,154.5ZM133.76,80.33v0C133.71,80.25,133.75,80.31,133.76,80.33Zm36.55,77.57s0,0,0,0Zm.09-.11c-2.13-.19-2.9-3.23-3.72-5-10.2-24.56-18.45-50-29.39-74.24-4.66-4.38-12.59-1.78-16.92-8.63-20.29-27.61,6.46-50.21,20.95-14.65,4.83,7.92-2.71,14.7-.68,22.48,10.15,24.26,20,48.79,29.21,73.4C170.67,153.11,171.46,156.06,170.4,157.79Z"/></svg>