<svg id="Layer_1" data-name="Layer 1" xmlns="http://www.w3.org/2000/svg" viewBox="0 0 200 200"><defs><style>.cls-1{fill:#7828d9;}</style></defs><path class="cls-1" d="M195.86,39.44,194.94,27,183.29,16l-15.48-.84-114.53,130-9.9,45.26,45.07-21.09C88.49,169.25,195.86,39.44,195.86,39.44ZM60.35,179c-.28-1.77-.72-6.17-2.08-7.41-1.08-1-4.89-.51-6.8-.74l6.11-25.26c1.47-.13,5.12.08,6.23,1a5.75,5.75,0,0,1,1.93,5.18l-1,5.91,4.88-3.48c1.08-.78,3-.22,4.55.71a37.12,37.12,0,0,1-.55,5.94l-.67,4,3.88-1.21A23.65,23.65,0,0,1,83,162.46c.6,1-.4,5.83-.3,6.59ZM177.74,19.13,77.57,138.54l.47.23L180.92,19.33l11.48,9.41-.33,10.54L86.82,164.65a25.39,25.39,0,0,0-2-3.22c-.41-.56-1.47-2-5.77-1.43L179.66,39.93l-.44-.22L77.35,157.9c0-3.17-.85-3.78-1.48-4.23a12,12,0,0,0-7.14-2.42,10.72,10.72,0,0,0-3.58-6.08,10.42,10.42,0,0,0-3.8-2L169.26,18.61Z"/><path class="cls-1" d="M34.18,18.26c-2.13,7.42-4.43,14.65-5.51,21.83A53,53,0,0,0,28,50.7a37.9,37.9,0,0,0,1.6,10,35.27,35.27,0,0,0,4.4,9c2,3,4.34,6.18,6.49,10a35.56,35.56,0,0,1,2.79,6.21,34.58,34.58,0,0,1,1.48,6.83A43.12,43.12,0,0,1,44,106a90.16,90.16,0,0,1-3.47,11.83c-1.34,3.75-2.74,7.36-4,10.84a107.18,107.18,0,0,0-3.37,10.44,56.44,56.44,0,0,0-1.85,10.35,42,42,0,0,0,.44,10.26,48.25,48.25,0,0,0,1.18,5.07c.2.85.55,1.67.82,2.52a13.32,13.32,0,0,0,.94,2.24,104.09,104.09,0,0,0,5.82,9.4c2.14,3.13,4.31,6.28,6.54,9.41l-5,3.95c-2.53-2.93-5.08-5.87-7.51-8.94-1.23-1.53-2.44-3.08-3.62-4.68a58.8,58.8,0,0,1-3.47-5.09,31.18,31.18,0,0,1-1.55-3c-.42-1-.92-1.88-1.29-2.87a45.26,45.26,0,0,1-2-6A46.54,46.54,0,0,1,20.91,149a62.82,62.82,0,0,1,1.47-12.49,118.36,118.36,0,0,1,3.3-11.67c1.23-3.8,2.65-7.37,3.85-10.9a78.84,78.84,0,0,0,3-10.35,32.89,32.89,0,0,0,.73-9.71,22,22,0,0,0-.9-4.46,28.41,28.41,0,0,0-1.86-4.35c-1.54-3-3.68-6.09-5.8-9.61a54.08,54.08,0,0,1-3-5.68,40,40,0,0,1-2.13-6.31c-2.14-8.59-1.4-17.24.56-25.17a124.5,124.5,0,0,1,8.47-22.18Z"/></svg>