<svg id="Layer_1" data-name="Layer 1" xmlns="http://www.w3.org/2000/svg" viewBox="0 0 200 200"><defs><style>.cls-1{fill:none;stroke:#7828d9;stroke-linecap:round;stroke-linejoin:round;stroke-width:5px;}</style></defs><path class="cls-1" d="M122.22,121.78c-15.1,14.21-39.46,11.39-53.91-5.27C59,105.81,56.42,92.42,57.51,79.78c1.56-18,10.4-33.19,21.87-46.74,4-4.71,9.09-8.87,15.17-9.88,5.14-.85,9.35.8,13.52,3.57,12.77,8.48,19.76,23.43,23.26,37.9,3.61,15,5.63,34.05-2.1,48A37,37,0,0,1,122.22,121.78Z"/><path class="cls-1" d="M113.2,154.84c-1.33.67-28.51,14.81-28.51,14.81l10.69,6.92,11.69-8.08"/><path class="cls-1" d="M110.87,145.86c-1,.34-29.5,13.48-29.5,13.48"/><path class="cls-1" d="M86.19,135.07c-.82-13.1-5.47-57.44-6.27-66.95,2,6.89,11.54,27,11.54,27l9.75-26.82,2.11,27.49,13-26.94-6.75,69.33-28.17,8.15"/></svg>