<?xml version="1.0" encoding="utf-8"?>
<!-- Generator: Adobe Illustrator 26.0.2, SVG Export Plug-In . SVG Version: 6.00 Build 0)  -->
<svg version="1.1" id="Layer_1" xmlns="http://www.w3.org/2000/svg" xmlns:xlink="http://www.w3.org/1999/xlink" x="0px" y="0px"
	 viewBox="0 0 200 200" style="enable-background:new 0 0 200 200;" xml:space="preserve">
<path d="M135,16.2c-20.8,0-35,20.4-35,20.4S84.3,16.2,65,16.2c-28.1,0-46.8,22.8-46.8,50.9c0,36.7,34.1,71.4,81.8,116.6
	c49.6-46.6,81.8-83.7,81.8-116.6C181.8,39,163.1,16.2,135,16.2z M100,122.8C67.1,122.8,40.4,90,40.4,90S67.1,57.3,100,57.3
	S159.6,90,159.6,90S132.9,122.8,100,122.8z M100,66.5c13,0,23.5,10.5,23.5,23.5S113,113.6,100,113.6S76.5,103,76.5,90
	S87,66.5,100,66.5z"/>
</svg>
