
<svg version="1.1" viewBox="0 0 512 512"  xml:space="preserve">
<path fill="currentColor"  d="M467.7,3.9H47C24,3.9,3.9,20.4,3.9,43.2v421.6C3.9,487.6,24,508,47,508h420.6c23.1,0,40.4-20.5,40.4-43.2V43.2
	C508.1,20.4,490.7,3.9,467.7,3.9z M160.2,424.1H87.9V199.6h72.2V424.1z M126.5,165.4H126c-23.1,0-38.1-17.2-38.1-38.7
	c0-21.9,15.4-38.7,39-38.7s38.1,16.7,38.6,38.7C165.5,148.2,150.6,165.4,126.5,165.4z M424.1,424.1h-72.2V301.3
	c0-29.4-10.5-49.5-36.6-49.5c-20,0-31.8,13.5-37,26.7c-2,4.7-2.5,11.2-2.5,17.7v127.9h-72.2V199.6h72.2v31.3
	c10.5-15,26.9-36.5,65.1-36.5c47.4,0,83.3,31.3,83.3,98.6V424.1z"/>
</svg>
