<svg xmlns="http://www.w3.org/2000/svg" viewBox="0 0 200 200" class=" text-purple-600 dark:text-purple-500"><defs><style>.middle{fill:currentColor;}.outer{fill:none;stroke:currentColor;stroke-linecap:round;stroke-linejoin:round;stroke-width:5px;}</style></defs>
<path class="middle" d="M76.32,122.22c24.13,32.23,62.42,5.47,47.35-29.49C105.72,58.41,60.94,92.59,76.32,122.22Z"/>
<path class="outer" d="M25.39,83.34c.49,13.6,12.07,21.88,15.09,35s-5.14,38.37,8.41,52.57c16.8,14.55,33.83-11.13,51.29-6.64,12.19,3.27,22.31,13.56,35.54,14.21,23,2.41,43-20.47,37.89-43-1.58-15.3-20.7-22.38-16-41,6.86-27-1.84-72.61-44.91-61.44C97.8,37,85.35,47.5,71.52,53.19c-7.25,3.23-13.36.09-21-.26C34.92,52.79,23.27,68.51,25.39,83.34Z"/></svg>