<svg xmlns="http://www.w3.org/2000/svg" viewBox="0 0 200 200" class=" text-purple-600 dark:text-purple-500"><defs><style>.cracktool{fill:none;stroke-linecap:round;stroke-linejoin:round;stroke-width:4px;}</style></defs>
<path stroke="currentColor" class="cracktool" d="M110,133.12c-5.42,6.88-7.12,10.55-18.36,11.35s-18.06-6.47-22.1-10"/>
<path stroke="currentColor" class="cracktool" d="M72.5,120.5v-7"/>
<path stroke="currentColor" class="cracktool" d="M139,79.23c5.61,11.77,20.44,52,28,74.52,2.23,10.16,15.47,11.42,14.43-.75-8.66-25.59-32.78-78-32.78-78s5.7-17.07-3.15-31-22.24-18.41-29.37-5.86C110,54.72,124.57,76,139,79.23Z"/>
<path stroke="currentColor" class="cracktool" d="M57.57,89c.63,3.6,3,5,4.6,8.09a54.84,54.84,0,0,1,7.35-5.49l7.62,13.5c8.94-13.23,15-17.47,15-17.47s3.43,11.05,9.34,24.76c4.11-5.69,8.53-11,8.53-11a25.13,25.13,0,0,1,5.81,8.85L119.57,100"/>
<path stroke="currentColor" class="cracktool" d="M96.15,162.63c25.55-5.12,31.41-34.95,26.15-56.88C108.78,43.64,65.1,47,50.13,105.62,42.5,135.5,64.44,169.24,96.15,162.63Z"/></svg>